<svg width="513" height="353" viewBox="0 0 513 353" fill="none" xmlns="http://www.w3.org/2000/svg">
<g opacity="0.7">
<path d="M436.28 0H346.05V79.0241H436.28V0Z" fill="#F4F4F4"/>
<path d="M436.28 79.0242H439.207V4.57764e-05H436.28V79.0242Z" fill="#F4F4F4"/>
<path opacity="0.05" d="M436.28 79.0242H439.207V4.57764e-05H436.28V79.0242Z" fill="#292A2E"/>
<path opacity="0.05" d="M419.843 15.807H362.486V63.2177H419.843V15.807Z" fill="#292A2E"/>
<path opacity="0.03" d="M419.843 15.807H416.854V63.2177H419.843V15.807Z" fill="#292A2E"/>
<path d="M510.073 155.385H513V100.363H510.073V155.385Z" fill="#F4F4F4"/>
<path opacity="0.05" d="M510.073 155.385H513V100.363H510.073V155.385Z" fill="#292A2E"/>
<path opacity="0.03" d="M496.63 110.386H493.641V145.362H496.63V110.386Z" fill="#292A2E"/>
</g>
<path d="M161.709 16.3959H410.349C413.93 16.3959 417.365 17.4471 419.898 19.3183C422.431 21.1895 423.853 23.7273 423.853 26.3736V246.4C423.853 249.104 422.4 251.697 419.812 253.609C417.224 255.521 413.715 256.595 410.055 256.595H162.003C158.344 256.595 154.834 255.521 152.247 253.609C149.659 251.697 148.205 249.104 148.205 246.4V26.3724C148.206 23.7264 149.629 21.1889 152.161 19.318C154.694 17.4471 158.128 16.396 161.709 16.3959Z" fill="white"/>
<path d="M410.055 256.982H162.004C158.205 256.982 154.562 255.867 151.876 253.883C149.19 251.898 147.681 249.207 147.681 246.4V25.985C147.681 23.3389 149.104 20.8014 151.637 18.9304C154.169 17.0595 157.604 16.0084 161.185 16.0084H410.873C414.455 16.0084 417.89 17.0596 420.422 18.9307C422.955 20.8018 424.378 23.3395 424.378 25.9857V246.4C424.378 249.207 422.869 251.898 420.183 253.883C417.497 255.867 413.854 256.982 410.055 256.982ZM148.73 26.3557V246.4C148.73 247.688 149.073 248.963 149.74 250.153C150.407 251.343 151.385 252.424 152.618 253.335C153.85 254.246 155.313 254.968 156.924 255.461C158.534 255.954 160.26 256.207 162.004 256.207H410.055C413.576 256.207 416.952 255.174 419.441 253.335C421.931 251.495 423.329 249.001 423.329 246.4V26.2589C423.329 25.0144 422.997 23.7821 422.352 22.6324C421.707 21.4827 420.762 20.4381 419.571 19.5582C418.38 18.6783 416.966 17.9804 415.41 17.5043C413.853 17.0281 412.185 16.7832 410.501 16.7833H161.687C158.251 16.7833 154.955 17.7918 152.525 19.587C150.095 21.3821 148.73 23.8169 148.73 26.3557Z" fill="#292A2E"/>
<path d="M201.677 64.1597H171.545C169.866 64.1583 168.256 63.6648 167.069 62.7876C165.881 61.9104 165.213 60.7211 165.211 59.4804V37.2174C165.213 35.9766 165.881 34.7871 167.068 33.9097C168.256 33.0323 169.866 32.5388 171.545 32.5374H201.677C203.356 32.5387 204.966 33.0322 206.154 33.9096C207.342 34.7869 208.01 35.9765 208.012 37.2174V59.4804C208.009 60.7212 207.341 61.9106 206.154 62.7878C204.966 63.665 203.356 64.1584 201.677 64.1597ZM171.545 33.3115C170.144 33.3127 168.8 33.7245 167.809 34.4566C166.819 35.1887 166.261 36.1813 166.26 37.2166V59.4804C166.261 60.5158 166.819 61.5083 167.809 62.2404C168.8 62.9725 170.144 63.3843 171.545 63.3856H201.677C203.078 63.3845 204.422 62.9727 205.413 62.2406C206.404 61.5085 206.961 60.5158 206.963 59.4804V37.2174C206.961 36.182 206.404 35.1894 205.413 34.4573C204.422 33.7252 203.078 33.3134 201.677 33.3123L171.545 33.3115Z" fill="#292A2E"/>
<path d="M201.677 108.267H171.545C169.866 108.265 168.256 107.772 167.068 106.894C165.881 106.017 165.213 104.827 165.211 103.587V81.324C165.213 80.0831 165.88 78.8935 167.068 78.016C168.255 77.1386 169.866 76.645 171.545 76.6436H201.677C203.356 76.645 204.966 77.1386 206.154 78.016C207.342 78.8935 208.01 80.0831 208.012 81.324V103.587C208.01 104.827 207.342 106.017 206.154 106.894C204.966 107.772 203.356 108.265 201.677 108.267ZM171.545 77.4196C170.144 77.4209 168.8 77.8327 167.809 78.5649C166.818 79.2971 166.261 80.2898 166.26 81.3252V103.588C166.261 104.623 166.818 105.616 167.809 106.348C168.8 107.08 170.144 107.492 171.545 107.493H201.677C203.078 107.492 204.422 107.08 205.413 106.348C206.404 105.616 206.961 104.623 206.963 103.588V81.324C206.961 80.2886 206.404 79.2959 205.413 78.5637C204.422 77.8316 203.078 77.4197 201.677 77.4185L171.545 77.4196Z" fill="#292A2E"/>
<path d="M201.677 152.374H171.545C169.866 152.372 168.256 151.879 167.068 151.001C165.881 150.124 165.213 148.934 165.211 147.694V125.431C165.213 124.19 165.881 123.001 167.068 122.123C168.256 121.246 169.866 120.752 171.545 120.751H201.677C203.356 120.752 204.966 121.246 206.154 122.123C207.342 123.001 208.01 124.19 208.012 125.431V147.694C208.01 148.935 207.342 150.124 206.154 151.002C204.966 151.879 203.356 152.372 201.677 152.374ZM171.545 121.526C170.144 121.527 168.8 121.939 167.809 122.671C166.818 123.403 166.261 124.396 166.26 125.431V147.694C166.261 148.729 166.818 149.722 167.809 150.454C168.8 151.186 170.144 151.598 171.545 151.599H201.677C203.078 151.598 204.422 151.186 205.413 150.454C206.404 149.722 206.961 148.729 206.963 147.694V125.431C206.961 124.396 206.404 123.403 205.413 122.671C204.422 121.939 203.078 121.527 201.677 121.526H171.545Z" fill="#292A2E"/>
<path d="M201.677 195.874H171.545C169.866 195.873 168.256 195.379 167.068 194.502C165.881 193.625 165.213 192.435 165.211 191.194V168.932C165.213 167.691 165.88 166.501 167.068 165.624C168.255 164.746 169.866 164.253 171.545 164.251H201.677C203.356 164.253 204.966 164.746 206.154 165.624C207.342 166.501 208.01 167.691 208.012 168.932V191.194C208.01 192.435 207.342 193.625 206.154 194.502C204.966 195.38 203.356 195.873 201.677 195.874ZM171.545 165.026C170.144 165.027 168.8 165.439 167.809 166.171C166.818 166.903 166.261 167.896 166.26 168.932V191.194C166.261 192.23 166.819 193.222 167.809 193.954C168.8 194.686 170.144 195.098 171.545 195.099H201.677C203.078 195.098 204.422 194.687 205.413 193.954C206.404 193.222 206.961 192.23 206.963 191.194V168.932C206.961 167.896 206.404 166.903 205.413 166.171C204.422 165.439 203.078 165.027 201.677 165.026H171.545Z" fill="#292A2E"/>
<path d="M201.677 239.375H171.545C169.866 239.374 168.255 238.88 167.068 238.002C165.88 237.125 165.213 235.935 165.211 234.695V212.432C165.213 211.191 165.88 210.002 167.068 209.124C168.255 208.247 169.866 207.753 171.545 207.752H201.677C203.356 207.753 204.966 208.247 206.154 209.124C207.342 210.002 208.01 211.191 208.012 212.432V234.695C208.009 235.936 207.341 237.125 206.154 238.003C204.966 238.88 203.356 239.374 201.677 239.375ZM171.545 208.526C170.144 208.528 168.8 208.939 167.809 209.672C166.818 210.404 166.261 211.396 166.26 212.432V234.695C166.261 235.73 166.818 236.723 167.809 237.455C168.8 238.187 170.144 238.599 171.545 238.6H201.677C203.078 238.599 204.422 238.187 205.413 237.455C206.404 236.723 206.961 235.73 206.963 234.695V212.432C206.961 211.397 206.404 210.404 205.413 209.672C204.422 208.94 203.078 208.528 201.677 208.527L171.545 208.526Z" fill="#292A2E"/>
<path d="M181.251 101.362C180.709 101.362 180.188 101.207 179.798 100.929L171.015 94.6911C170.816 94.55 170.657 94.3815 170.547 94.195C170.436 94.0086 170.377 93.8078 170.371 93.6044C170.366 93.4009 170.415 93.1986 170.515 93.009C170.615 92.8195 170.765 92.6464 170.956 92.4996C171.147 92.3529 171.375 92.2354 171.628 92.1538C171.88 92.0722 172.152 92.0281 172.427 92.0241C172.702 92.0201 172.976 92.0562 173.233 92.1303C173.489 92.2045 173.724 92.3152 173.922 92.4563L181.216 97.6369L199.497 84.0063C199.89 83.7192 200.42 83.5582 200.973 83.5583C201.525 83.5585 202.056 83.7198 202.448 84.0072C202.841 84.2945 203.064 84.6847 203.069 85.093C203.075 85.5013 202.862 85.8947 202.477 86.1877L182.741 100.901C182.547 101.047 182.315 101.163 182.059 101.242C181.803 101.321 181.529 101.362 181.251 101.362Z" fill="#0CBC8B"/>
<path d="M181.251 145.469C180.709 145.469 180.188 145.314 179.798 145.036L171.015 138.798C170.614 138.514 170.382 138.123 170.371 137.712C170.36 137.301 170.571 136.903 170.956 136.607C171.342 136.311 171.871 136.14 172.427 136.131C172.983 136.123 173.521 136.279 173.922 136.564L181.216 141.743L199.497 128.113C199.888 127.821 200.421 127.656 200.977 127.654C201.534 127.652 202.068 127.814 202.463 128.103C202.859 128.393 203.082 128.786 203.085 129.197C203.087 129.608 202.869 130.003 202.477 130.295L182.741 145.009C182.546 145.154 182.315 145.27 182.059 145.349C181.803 145.428 181.529 145.469 181.251 145.469Z" fill="#0CBC8B"/>
<path opacity="0.5" d="M401.198 41.4551H224.48C223.672 41.4551 223.016 41.9392 223.016 42.5365C223.016 43.1337 223.672 43.6178 224.48 43.6178H401.198C402.006 43.6178 402.662 43.1337 402.662 42.5365C402.662 41.9392 402.006 41.4551 401.198 41.4551Z" fill="#262626"/>
<path opacity="0.5" d="M338.269 53.0787H224.48C223.672 53.0787 223.016 53.5629 223.016 54.1601C223.016 54.7573 223.672 55.2415 224.48 55.2415H338.269C339.078 55.2415 339.733 54.7573 339.733 54.1601C339.733 53.5629 339.078 53.0787 338.269 53.0787Z" fill="#262626"/>
<path opacity="0.5" d="M401.198 85.562H224.48C223.672 85.562 223.016 86.0462 223.016 86.6434C223.016 87.2406 223.672 87.7248 224.48 87.7248H401.198C402.006 87.7248 402.662 87.2406 402.662 86.6434C402.662 86.0462 402.006 85.562 401.198 85.562Z" fill="#262626"/>
<path opacity="0.5" d="M338.269 97.1854H224.48C223.672 97.1854 223.016 97.6696 223.016 98.2668C223.016 98.864 223.672 99.3482 224.48 99.3482H338.269C339.078 99.3482 339.733 98.864 339.733 98.2668C339.733 97.6696 339.078 97.1854 338.269 97.1854Z" fill="#262626"/>
<path opacity="0.5" d="M401.198 129.669H224.48C223.672 129.669 223.016 130.153 223.016 130.75C223.016 131.348 223.672 131.832 224.48 131.832H401.198C402.006 131.832 402.662 131.348 402.662 130.75C402.662 130.153 402.006 129.669 401.198 129.669Z" fill="#262626"/>
<path opacity="0.5" d="M338.269 141.292H224.48C223.672 141.292 223.016 141.777 223.016 142.374C223.016 142.971 223.672 143.455 224.48 143.455H338.269C339.078 143.455 339.733 142.971 339.733 142.374C339.733 141.777 339.078 141.292 338.269 141.292Z" fill="#262626"/>
<path opacity="0.5" d="M401.198 173.17H224.48C223.672 173.17 223.016 173.654 223.016 174.251C223.016 174.848 223.672 175.332 224.48 175.332H401.198C402.006 175.332 402.662 174.848 402.662 174.251C402.662 173.654 402.006 173.17 401.198 173.17Z" fill="#262626"/>
<path opacity="0.5" d="M338.269 184.793H224.48C223.672 184.793 223.016 185.277 223.016 185.875C223.016 186.472 223.672 186.956 224.48 186.956H338.269C339.078 186.956 339.733 186.472 339.733 185.875C339.733 185.277 339.078 184.793 338.269 184.793Z" fill="#262626"/>
<path opacity="0.5" d="M401.198 216.67H224.48C223.672 216.67 223.016 217.154 223.016 217.752C223.016 218.349 223.672 218.833 224.48 218.833H401.198C402.006 218.833 402.662 218.349 402.662 217.752C402.662 217.154 402.006 216.67 401.198 216.67Z" fill="#262626"/>
<path opacity="0.5" d="M338.269 228.294H224.48C223.672 228.294 223.016 228.778 223.016 229.375C223.016 229.972 223.672 230.457 224.48 230.457H338.269C339.078 230.457 339.733 229.972 339.733 229.375C339.733 228.778 339.078 228.294 338.269 228.294Z" fill="#262626"/>
<path d="M179.738 56.2747C179.891 55.9971 180.162 55.7641 180.511 55.611C180.859 55.4578 181.266 55.3931 181.669 55.4266C181.669 55.4026 181.641 55.3445 181.698 55.3448L180.387 54.7327C179.995 54.5584 179.701 54.2853 179.561 53.9636C179.42 53.642 179.442 53.2936 179.622 52.9829C179.813 52.6802 180.15 52.4408 180.566 52.3112C180.983 52.1815 181.45 52.1708 181.877 52.2813C181.873 52.2681 181.884 52.2549 181.885 52.2425L181.346 51.9911C180.978 51.8258 180.698 51.5715 180.554 51.2713C180.41 50.9711 180.411 50.6434 180.556 50.3436C180.653 50.1571 180.805 49.9888 181 49.8508C181.195 49.7128 181.43 49.6085 181.686 49.5455C181.943 49.4825 182.215 49.4623 182.483 49.4865C182.751 49.5106 183.009 49.5783 183.238 49.6849L184.483 50.2661C184.486 50.2607 184.483 50.2549 184.486 50.2498C184.489 50.2448 184.503 50.2425 184.509 50.2367C184.217 50.0205 184.033 49.7375 183.987 49.4339C183.941 49.1303 184.036 48.8241 184.256 48.5656C184.767 47.8709 186.079 47.9515 186.884 48.3269L189.296 49.6555C189.668 49.8605 189.966 50.1303 190.163 50.4408C190.359 50.7514 190.449 51.0931 190.424 51.4354C190.209 54.3987 189.398 62.1291 186.829 60.928L180.505 57.978C180.139 57.7976 179.865 57.5322 179.726 57.2237C179.587 56.9152 179.591 56.5812 179.738 56.2747Z" fill="#E98862"/>
<path d="M181.251 56.8132C180.709 56.8135 180.188 56.6583 179.798 56.3804L171.015 50.1424C170.813 50.0019 170.651 49.8333 170.538 49.6463C170.426 49.4593 170.364 49.2576 170.357 49.0529C170.35 48.8482 170.399 48.6445 170.499 48.4537C170.599 48.2628 170.75 48.0885 170.942 47.9409C171.134 47.7933 171.364 47.6753 171.618 47.5937C171.872 47.512 172.146 47.4684 172.423 47.4654C172.7 47.4623 172.975 47.4998 173.232 47.5758C173.49 47.6518 173.724 47.7647 173.922 47.908L181.216 53.0874L199.497 39.458C199.691 39.3134 199.921 39.1985 200.175 39.1197C200.429 39.041 200.702 39 200.977 38.999C201.253 38.9981 201.526 39.0373 201.781 39.1143C202.036 39.1913 202.268 39.3047 202.463 39.4479C202.659 39.5912 202.815 39.7615 202.921 39.9492C203.028 40.1369 203.083 40.3382 203.085 40.5418C203.086 40.7453 203.033 40.947 202.929 41.1354C202.824 41.3238 202.671 41.4952 202.477 41.6398L182.741 56.3533C182.546 56.4991 182.314 56.6149 182.059 56.6938C181.803 56.7728 181.528 56.8134 181.251 56.8132Z" fill="#0CBC8B"/>
<path d="M175.208 53.0303C175.251 52.8046 175.357 52.5879 175.518 52.3934C175.679 52.1989 175.892 52.0307 176.144 51.899C176.396 51.7674 176.682 51.675 176.984 51.6276C177.286 51.5803 177.598 51.5788 177.9 51.6234C178.482 51.7249 178.99 51.9857 179.321 52.353C179.653 52.7203 179.783 53.1669 179.686 53.6025L179.624 55.9819C179.61 56.4852 179.847 56.9747 180.288 57.358C180.73 57.7413 181.346 57.9919 182.021 58.0625C182.682 58.1318 183.355 58.0235 183.917 57.7574C184.479 57.4913 184.893 57.085 185.085 56.6123L186.728 52.5506L184.941 50.5796C185.566 49.8357 186.09 47.912 187.173 48.4851C188.089 48.9058 190.17 49.9233 190.739 50.8873C190.75 50.8911 191.815 59.1621 191.236 59.8518L186.108 69.986C183.648 72.912 171.777 70.6478 171.777 70.6478L175.208 53.0303Z" fill="#E98862"/>
<path d="M181.216 53.0874L199.497 39.458C199.691 39.3134 199.921 39.1985 200.175 39.1197C200.429 39.041 200.702 39 200.977 38.999C201.253 38.9981 201.526 39.0373 201.781 39.1143C202.036 39.1913 202.268 39.3047 202.463 39.4479C202.659 39.5912 202.815 39.7615 202.921 39.9492C203.028 40.1369 203.083 40.3382 203.085 40.5418C203.086 40.7453 203.033 40.947 202.929 41.1354C202.824 41.3238 202.671 41.4952 202.477 41.6398L182.741 56.3533" fill="#0CBC8B"/>
<path d="M87.9126 123.53L161.899 118.93C167.347 119.036 172.09 115.689 174.088 111.934L193.472 67.0445L168.115 59.6798L151.004 98.1318L85.9356 101.496L87.9126 123.53Z" fill="#DC0028"/>
<path d="M44.9533 334.882C44.9533 334.882 47.321 343.948 58.8123 344.455C70.3035 344.962 67.8116 351.724 67.8116 351.724H23.8985V335.514L44.9533 334.882Z" fill="#DC0028"/>
<path d="M31.409 169.466C31.409 169.466 31.5469 166.74 31.5175 172.924C31.409 195.988 30.8673 222.334 29.5437 237.75C27.4162 262.533 21.9608 340.669 21.9608 340.669L50.8167 340.49L78.7842 168.529L31.409 169.466Z" fill="#262626"/>
<path d="M63.995 196.665C63.995 196.665 65.1906 213.403 65.4109 217.332C65.9237 226.42 66.102 235.829 66.102 246.497L70.6518 218.53C70.6518 218.53 67.3234 209.766 63.995 196.665Z" fill="#0A0A0A"/>
<path d="M96.3245 334.882C96.3245 334.882 98.6921 343.948 110.183 344.455C121.675 344.962 119.183 351.724 119.183 351.724H75.2696V335.514L96.3245 334.882Z" fill="#DC0028"/>
<path d="M110.296 171.257C110.296 171.257 112.852 250.087 112.478 253.94L101.747 340.071L73.3677 340.458L76.1334 250.823C76.1334 250.823 74.1826 226.098 66.0968 203.138C61.9598 191.355 59.47 179.288 58.6665 167.129L110.296 171.257Z" fill="#262626"/>
<path d="M31.0942 169.464L31 169.468C31 169.468 31.0686 168.122 31.0942 169.464Z" fill="#333333"/>
<path d="M114.358 129.827C113.764 134.992 110.868 164.895 110.296 171.257H31.4404C30.9952 165.519 28.9946 140.425 27.3055 129.204C25.6929 118.495 22.5292 113.134 24.8481 109.968C28.6375 104.794 38.9924 101.805 46.0529 101.098C50.3646 100.667 87.1222 100.357 87.2103 100.357C90.0977 100.357 106.91 101.36 110.627 103.474C117.351 107.301 115.398 120.819 114.358 129.827Z" fill="#DC0028"/>
<path d="M115.447 121.97C115.514 121.97 115.579 121.951 115.628 121.917C115.676 121.883 115.706 121.837 115.71 121.788L116.346 114.36C116.35 114.308 116.326 114.258 116.28 114.22C116.234 114.181 116.169 114.158 116.099 114.155C116.03 114.153 115.962 114.17 115.911 114.205C115.859 114.239 115.827 114.286 115.822 114.337L115.186 121.765C115.182 121.816 115.206 121.867 115.252 121.905C115.298 121.943 115.363 121.967 115.433 121.97L115.447 121.97Z" fill="#0C0C0C"/>
<path d="M14.3921 170.919C12.073 170.919 9.78843 170.504 7.73277 169.711C5.67712 168.918 3.9112 167.77 2.58528 166.364C1.25935 164.958 0.412674 163.337 0.117277 161.637C-0.178121 159.938 0.0865072 158.211 0.888645 156.603C1.70095 154.971 20.7998 117.603 24.4344 110.68L51.3568 118.739C49.3116 122.631 41.9055 137.387 35.9545 149.274L45.8406 148.48L48.9524 169.629L15.949 170.857C15.4319 170.898 14.9122 170.919 14.3921 170.919Z" fill="#DC0028"/>
<path d="M96.605 99.6501C96.5169 99.6415 94.0978 106.367 75.2208 105.32C62.1527 104.597 58.9643 98.0247 58.6664 98.0247C60.0755 97.8035 62.364 97.5737 62.9896 97.3273C65.0474 96.5101 66.5466 95.5159 67.3007 93.3815C67.8907 91.7127 68.1922 85.2876 68.1922 82.064L88.3016 85.4026C88.021 89.0389 86.0592 97.4691 92.9352 98.9612C94.0789 99.2076 95.3113 99.4343 96.605 99.6501Z" fill="#E98862"/>
<path d="M87.6053 92.5511C79.6779 93.0134 69.4939 90.5403 67.5594 82.7257L65.8142 75.6741C63.8797 67.8595 67.8667 60.7738 77.8257 59.4282C87.7841 58.0825 96.796 63.412 98.73 71.2265L99.503 74.3482C100.245 77.3471 101.75 91.7266 87.6053 92.5511Z" fill="#E98862"/>
<path d="M94.9559 85.3764C93.5332 80.0939 92.8803 76.5692 92.9563 72.8512C94.9606 70.2553 94.4336 67.2719 93.9779 65.984C95.3583 66.6317 96.9812 66.9391 98.6131 66.862C98.6131 66.862 95.2983 57.0331 84.032 54.3883C81.9601 53.7928 76.6704 53.0404 69.6471 53.7521C63.6736 54.3573 48.9483 57.6573 46.8444 69.9058V69.9128C46.7752 70.3192 45.3614 81.6046 42.5443 87.0192C38.7554 94.2979 33.4354 96.5595 33.5701 104.958C33.7437 115.761 60.6231 117.199 76.8335 116.391C93.0439 115.583 102.096 111.644 102.215 103.859C102.344 95.1356 97.8034 95.9457 94.9559 85.3764Z" fill="#0A0A0A"/>
<path d="M29.7616 129.419L29.2375 129.432L31.1751 171.264L31.6992 171.25L29.7616 129.419Z" fill="#0C0C0C"/>
<path d="M501.061 351.996H7.90103C7.80367 351.996 7.7103 351.967 7.64146 351.917C7.57262 351.866 7.53394 351.797 7.53394 351.725C7.53394 351.653 7.57262 351.584 7.64146 351.533C7.7103 351.482 7.80367 351.454 7.90103 351.454H501.061C501.158 351.454 501.252 351.482 501.32 351.533C501.389 351.584 501.428 351.653 501.428 351.725C501.428 351.797 501.389 351.866 501.32 351.917C501.252 351.967 501.158 351.996 501.061 351.996Z" fill="#292A2E"/>
<path d="M450.157 301.218C450.018 301.218 449.884 301.177 449.786 301.105C449.047 300.559 447.843 290.543 444.599 260.723C443.272 248.521 442.018 236.996 441.103 229.992C441.038 229.492 440.775 229.434 440.689 229.415C439.437 229.135 435.627 231.355 433.501 233.298C433.457 233.337 433.404 233.37 433.344 233.395C433.283 233.419 433.217 233.434 433.148 233.439C433.08 233.445 433.01 233.44 432.944 233.426C432.878 233.411 432.817 233.387 432.763 233.355C432.71 233.323 432.665 233.284 432.632 233.239C432.599 233.194 432.579 233.145 432.572 233.095C432.564 233.044 432.571 232.993 432.59 232.944C432.61 232.895 432.642 232.85 432.685 232.81C434.092 231.526 438.675 228.157 440.99 228.672C441.458 228.776 442.039 229.076 442.147 229.918C443.063 236.928 444.317 248.456 445.644 260.661C447.616 278.782 449.849 299.312 450.583 300.605C450.639 300.662 450.673 300.731 450.68 300.802C450.687 300.873 450.668 300.944 450.624 301.008C450.58 301.071 450.513 301.124 450.43 301.161C450.348 301.199 450.253 301.218 450.157 301.218Z" fill="#494949"/>
<path d="M439.756 242.845C448.457 237.691 451.342 229.669 446.197 224.928C441.053 220.186 429.829 220.521 421.127 225.674C412.425 230.828 409.541 238.849 414.685 243.591C419.829 248.332 431.054 247.998 439.756 242.845Z" fill="#0CBC8B"/>
<path opacity="0.2" d="M439.756 242.845C448.457 237.691 451.342 229.669 446.197 224.928C441.053 220.186 429.829 220.521 421.127 225.674C412.425 230.828 409.541 238.849 414.685 243.591C419.829 248.332 431.054 247.998 439.756 242.845Z" fill="white"/>
<path d="M417.125 244.797C417.075 244.797 417.026 244.786 416.984 244.766C416.942 244.747 416.909 244.718 416.888 244.685C416.867 244.652 416.859 244.615 416.865 244.578C416.871 244.542 416.892 244.508 416.923 244.479L441.723 222.383C441.745 222.363 441.772 222.347 441.802 222.334C441.833 222.322 441.867 222.314 441.901 222.312C441.936 222.309 441.971 222.312 442.004 222.319C442.037 222.327 442.068 222.339 442.095 222.355C442.122 222.372 442.144 222.392 442.16 222.415C442.176 222.438 442.186 222.463 442.189 222.488C442.192 222.514 442.188 222.54 442.177 222.564C442.166 222.589 442.149 222.611 442.126 222.631L417.327 244.727C417.302 244.749 417.271 244.766 417.236 244.778C417.201 244.79 417.163 244.797 417.125 244.797Z" fill="white"/>
<path d="M455.566 296.481C455.482 296.481 455.4 296.466 455.326 296.438C455.251 296.41 455.187 296.368 455.139 296.318C455.09 296.268 455.059 296.209 455.047 296.148C455.035 296.087 455.044 296.025 455.071 295.966L464.386 276.172C464.66 275.591 465.128 275.069 465.745 274.656C466.363 274.242 467.111 273.95 467.922 273.805C468.732 273.661 469.578 273.669 470.384 273.829C471.189 273.988 471.926 274.295 472.53 274.72L477.454 278.198C477.555 278.269 477.613 278.366 477.616 278.469C477.619 278.572 477.567 278.671 477.471 278.745C477.375 278.82 477.243 278.863 477.104 278.865C476.965 278.867 476.83 278.829 476.73 278.758L471.805 275.282C471.329 274.946 470.746 274.705 470.111 274.578C469.475 274.452 468.807 274.446 468.168 274.56C467.528 274.674 466.938 274.905 466.45 275.231C465.962 275.558 465.593 275.969 465.377 276.428L456.061 296.221C456.025 296.297 455.959 296.363 455.87 296.409C455.781 296.456 455.675 296.481 455.566 296.481Z" fill="#494949"/>
<path d="M491.214 289.156C497.663 285.385 497.28 277.09 490.358 270.629C483.437 264.168 472.598 261.988 466.149 265.759C459.7 269.531 460.083 277.826 467.005 284.286C473.926 290.747 484.765 292.927 491.214 289.156Z" fill="#0CBC8B"/>
<path d="M445.925 299.956C445.807 299.956 445.693 299.926 445.6 299.872C445.508 299.818 445.443 299.743 445.415 299.658L429.783 251.365C429.676 251.035 429.448 250.734 429.125 250.494C428.802 250.254 428.395 250.085 427.95 250.005C427.504 249.925 427.038 249.937 426.601 250.04C426.165 250.143 425.775 250.334 425.476 250.59L420.657 254.704C420.566 254.782 420.437 254.83 420.298 254.837C420.159 254.844 420.022 254.811 419.917 254.744C419.812 254.676 419.747 254.581 419.737 254.478C419.727 254.376 419.773 254.275 419.864 254.197L424.683 250.083C425.109 249.719 425.663 249.449 426.283 249.302C426.903 249.156 427.566 249.139 428.199 249.253C428.832 249.367 429.41 249.608 429.869 249.949C430.328 250.29 430.651 250.718 430.803 251.186L446.436 299.48C446.454 299.537 446.455 299.596 446.438 299.653C446.421 299.711 446.386 299.764 446.337 299.81C446.288 299.856 446.225 299.893 446.154 299.919C446.083 299.944 446.004 299.957 445.925 299.957V299.956Z" fill="#494949"/>
<path d="M439.849 265.44C441.745 257.324 436.715 249.907 428.613 248.874C420.512 247.841 412.408 253.583 410.512 261.699C408.616 269.815 413.646 277.232 421.748 278.265C429.849 279.298 437.953 273.556 439.849 265.44Z" fill="#0CBC8B"/>
<path d="M450.158 301.218C450.136 301.218 450.115 301.217 450.093 301.215C450.025 301.209 449.959 301.193 449.899 301.168C449.839 301.143 449.786 301.109 449.744 301.069C449.701 301.029 449.67 300.983 449.652 300.934C449.633 300.885 449.628 300.834 449.637 300.783L459.619 240.9C459.728 240.247 460.089 239.632 460.66 239.128C461.231 238.624 461.986 238.252 462.836 238.057C463.686 237.863 464.593 237.854 465.45 238.031C466.307 238.209 467.075 238.565 467.664 239.058L479.074 248.606C479.166 248.683 479.213 248.784 479.205 248.887C479.196 248.989 479.133 249.085 479.028 249.153C478.924 249.221 478.787 249.256 478.648 249.25C478.51 249.243 478.38 249.197 478.288 249.12L466.878 239.572C466.423 239.191 465.828 238.915 465.166 238.778C464.504 238.641 463.803 238.648 463.146 238.798C462.489 238.948 461.905 239.235 461.464 239.625C461.023 240.015 460.744 240.49 460.66 240.994L450.678 300.878C450.662 300.972 450.601 301.058 450.505 301.121C450.409 301.184 450.286 301.218 450.158 301.218Z" fill="#494949"/>
<path d="M490.777 253.912C494.758 248.595 490.074 241.051 480.315 237.063C470.556 233.074 459.418 234.152 455.437 239.469C451.456 244.787 456.14 252.331 465.898 256.319C475.657 260.307 486.796 259.23 490.777 253.912Z" fill="#0CBC8B"/>
<path opacity="0.2" d="M491.214 289.156C497.663 285.385 497.28 277.09 490.358 270.629C483.437 264.168 472.598 261.988 466.149 265.759C459.7 269.531 460.083 277.826 467.005 284.286C473.926 290.747 484.765 292.927 491.214 289.156Z" fill="white"/>
<path opacity="0.5" d="M439.849 265.44C441.745 257.324 436.715 249.907 428.613 248.874C420.512 247.841 412.408 253.583 410.512 261.699C408.616 269.815 413.646 277.232 421.748 278.265C429.849 279.298 437.953 273.556 439.849 265.44Z" fill="white"/>
<path opacity="0.5" d="M490.777 253.912C494.758 248.595 490.074 241.051 480.315 237.063C470.556 233.074 459.418 234.152 455.437 239.469C451.456 244.787 456.14 252.331 465.898 256.319C475.657 260.307 486.796 259.23 490.777 253.912Z" fill="white"/>
<path d="M462.926 352.029H437.389L433.157 291.662H467.157L462.926 352.029Z" fill="#292A2E"/>
<path opacity="0.3" d="M462.926 352.029H437.389L433.157 291.662H467.157L462.926 352.029Z" fill="white"/>
<path d="M491.215 289.347C491.175 289.347 491.136 289.34 491.1 289.328C491.064 289.315 491.033 289.296 491.009 289.273L465.942 265.877C465.899 265.836 465.879 265.785 465.887 265.734C465.895 265.683 465.93 265.636 465.985 265.604C466.04 265.572 466.109 265.558 466.178 265.564C466.247 265.57 466.31 265.596 466.354 265.636L491.42 289.033C491.451 289.061 491.47 289.096 491.475 289.132C491.481 289.168 491.472 289.205 491.451 289.237C491.43 289.27 491.396 289.298 491.354 289.317C491.313 289.337 491.264 289.347 491.215 289.347Z" fill="white"/>
<path d="M489.109 255.787C489.054 255.787 489 255.773 488.955 255.748L456.879 238.445C456.851 238.43 456.828 238.411 456.81 238.389C456.792 238.368 456.78 238.344 456.775 238.318C456.769 238.293 456.771 238.268 456.779 238.243C456.787 238.218 456.802 238.195 456.822 238.174C456.842 238.154 456.868 238.136 456.897 238.123C456.927 238.11 456.96 238.101 456.994 238.097C457.028 238.093 457.062 238.094 457.096 238.1C457.129 238.106 457.161 238.117 457.189 238.132L489.267 255.437C489.311 255.461 489.343 255.495 489.359 255.534C489.376 255.573 489.375 255.614 489.358 255.653C489.341 255.692 489.307 255.725 489.263 255.749C489.218 255.773 489.164 255.786 489.109 255.786V255.787Z" fill="white"/>
<path d="M420.741 278.007C420.718 278.007 420.695 278.004 420.673 278C420.606 277.987 420.548 277.954 420.514 277.91C420.479 277.865 420.469 277.813 420.487 277.763L430.698 249.497C430.707 249.472 430.722 249.449 430.743 249.428C430.764 249.407 430.79 249.39 430.82 249.377C430.85 249.364 430.883 249.355 430.917 249.352C430.952 249.349 430.987 249.35 431.021 249.357C431.054 249.363 431.086 249.375 431.113 249.391C431.141 249.406 431.164 249.426 431.181 249.448C431.198 249.471 431.209 249.495 431.213 249.521C431.217 249.546 431.215 249.572 431.205 249.597L420.994 277.863C420.979 277.904 420.946 277.94 420.9 277.966C420.855 277.992 420.799 278.007 420.741 278.007Z" fill="white"/>
</svg>
