<?xml version="1.0" standalone="no"?>
<svg viewBox="0 0 200 200" xmlns="http://www.w3.org/2000/svg">
  <path fill="#DC0028" d="M36.8,-56.5C51.1,-48,68.7,-43.7,78.8,-32.7C88.9,-21.8,91.4,-4.1,85.7,10C80,24,66,34.6,52.9,40.8C39.7,47,27.3,48.8,13.9,57.3C0.5,65.7,-13.8,80.8,-27.3,81.9C-40.8,83,-53.4,70.1,-57.3,55.4C-61.3,40.6,-56.5,24,-58.1,8.8C-59.6,-6.5,-67.4,-20.4,-65.2,-31.8C-63.1,-43.2,-51.1,-52,-38.6,-61.5C-26.1,-70.9,-13,-80.8,-0.9,-79.4C11.2,-77.9,22.4,-65.1,36.8,-56.5Z" transform="translate(100 100)" />
</svg>
