<svg width="75" height="76" viewBox="0 0 75 76" fill="none" xmlns="http://www.w3.org/2000/svg">
<path d="M67.6199 18.3095L46.0414 2.99376C40.1598 -1.18672 31.1313 -0.958697 25.4746 3.48782L6.7058 18.3475C2.95955 21.3119 0 27.3926 0 32.1809V58.404C0 68.0951 7.75476 76 17.3077 76H57.6923C67.2452 76 75 68.1331 75 58.442V32.675C75 27.5446 71.7408 21.2359 67.6199 18.3095ZM40.3096 60.7982C40.3096 62.3564 39.0359 63.6486 37.4999 63.6486C35.964 63.6486 34.6903 62.3564 34.6903 60.7982V49.3969C34.6903 47.8388 35.964 46.5466 37.4999 46.5466C39.0359 46.5466 40.3096 47.8388 40.3096 49.3969V60.7982Z" fill="#DC0028"/>
</svg>
