<svg width="75" height="75" viewBox="0 0 75 75" fill="none" xmlns="http://www.w3.org/2000/svg">
<path d="M75 47.2565V55.2196C75 64.0917 68.6434 72.4548 60.0012 74.891C59.3942 75.0365 58.7513 75.0365 58.18 74.891C53.966 73.7275 50.2521 71.1094 47.6451 67.7279C44.8239 64.1645 43.1812 59.7647 43.1812 55.2196V47.2565C43.1812 45.7293 44.2883 44.0567 45.6453 43.4749L55.573 39.3297C57.8228 38.4207 60.3226 38.4207 62.5725 39.3297L66.1436 40.8205L72.5359 43.4749C73.8929 44.0567 75 45.7293 75 47.2565Z" fill="#DC0028"/>
<path d="M67.6774 31.4026L67.0346 35.2933L64.5348 34.2752C60.9994 32.8207 57.1426 32.8207 53.5357 34.2752L43.5723 38.4567C40.1797 39.9112 37.8228 43.5109 37.8228 47.2561V55.2193C37.8228 59.5463 39.0012 63.8732 41.1796 67.7275H14.9318C10.0394 67.7275 5.43261 63.7642 4.61125 58.8554L0.111622 31.4026C-0.459759 28.0211 1.21867 23.4757 3.86131 21.3304L27.3593 2.20442C30.9662 -0.740839 36.8228 -0.740839 40.4297 2.24078L63.9277 21.3304C66.5347 23.4757 68.2488 28.0211 67.6774 31.4026Z" fill="#DC0028"/>
</svg>
