<svg width="137" height="44" viewBox="0 0 137 44" fill="none" xmlns="http://www.w3.org/2000/svg">
<path fill-rule="evenodd" clip-rule="evenodd" d="M20 42C31.0458 42 40 33.0457 40 22C40 10.9543 31.0458 2 20 2C8.95429 2 0 10.9543 0 22C0 33.0457 8.95429 42 20 42ZM23.087 17.4526C24.7918 15.7477 24.7918 12.9836 23.087 11.2787C21.3821 9.57378 18.618 9.57378 16.9131 11.2787C15.2083 12.9836 15.2083 15.7477 16.9131 17.4526L20 20.5395L23.087 17.4526ZM24.5475 25.087C26.2524 26.7919 29.0165 26.7919 30.7214 25.087C32.4262 23.3821 32.4262 20.618 30.7214 18.9131C29.0165 17.2083 26.2524 17.2083 24.5475 18.9131L21.4606 22.0001L24.5475 25.087ZM23.087 32.7214C24.7918 31.0165 24.7918 28.2524 23.087 26.5475L20 23.4606L16.9131 26.5475C15.2083 28.2524 15.2083 31.0165 16.9131 32.7214C18.618 34.4263 21.3821 34.4263 23.087 32.7214ZM9.27863 25.087C7.57379 23.3821 7.57379 20.618 9.27863 18.9131C10.9836 17.2083 13.7477 17.2083 15.4526 18.9131L18.5395 22.0001L15.4526 25.087C13.7477 26.7919 10.9836 26.7919 9.27863 25.087Z" fill="#DE3B30"/>
<path d="M53.575 35.63C52.105 35.63 50.81 35.3733 49.69 34.86C48.57 34.3467 47.7067 33.635 47.1 32.725C46.4933 31.7917 46.19 30.7183 46.19 29.505C46.19 28.4783 46.4 27.545 46.82 26.705C47.2633 25.865 47.8467 25.2 48.57 24.71C49.3167 24.22 50.1333 23.975 51.02 23.975C51.8367 23.975 52.525 24.185 53.085 24.605C53.645 25.0017 53.995 25.5617 54.135 26.285C52.9217 26.285 51.9533 26.6117 51.23 27.265C50.5067 27.895 50.145 28.7583 50.145 29.855C50.145 30.8583 50.4483 31.6633 51.055 32.27C51.6617 32.8767 52.4667 33.18 53.47 33.18C54.7067 33.18 55.7217 32.7717 56.515 31.955C57.3317 31.115 57.74 30.065 57.74 28.805C57.74 27.7083 57.4367 26.67 56.83 25.69C56.2233 24.71 55.3133 23.52 54.1 22.12C52.84 20.6733 51.8833 19.4367 51.23 18.41C50.6 17.36 50.285 16.2167 50.285 14.98C50.285 13.7667 50.6233 12.6817 51.3 11.725C51.9767 10.745 52.91 9.975 54.1 9.415C55.29 8.855 56.6317 8.575 58.125 8.575C60.015 8.575 61.52 9.01833 62.64 9.905C63.7833 10.7917 64.355 11.9817 64.355 13.475C64.355 14.455 64.11 15.2483 63.62 15.855C63.13 16.4617 62.4883 16.765 61.695 16.765C60.8083 16.765 60.0967 16.4033 59.56 15.68C60.0033 15.3533 60.3533 14.9217 60.61 14.385C60.8667 13.8483 60.995 13.2883 60.995 12.705C60.995 11.9583 60.7733 11.3633 60.33 10.92C59.8867 10.4767 59.28 10.255 58.51 10.255C57.5767 10.255 56.8067 10.5933 56.2 11.27C55.6167 11.9233 55.325 12.7633 55.325 13.79C55.325 14.7233 55.5933 15.5983 56.13 16.415C56.6667 17.2083 57.5067 18.235 58.65 19.495C59.5833 20.4983 60.33 21.3617 60.89 22.085C61.4733 22.8083 61.9633 23.6483 62.36 24.605C62.78 25.5383 62.99 26.5533 62.99 27.65C62.99 29.1433 62.57 30.4967 61.73 31.71C60.9133 32.9233 59.7817 33.88 58.335 34.58C56.9117 35.28 55.325 35.63 53.575 35.63ZM69.1609 35.21C67.8309 35.21 66.7226 34.755 65.8359 33.845C64.9493 32.935 64.5059 31.5117 64.5059 29.575C64.5059 27.8483 64.8443 26.04 65.5209 24.15C66.2209 22.2367 67.2476 20.6267 68.6009 19.32C69.9776 17.99 71.6109 17.325 73.5009 17.325C74.4576 17.325 75.1693 17.4883 75.6359 17.815C76.1026 18.1417 76.3359 18.5733 76.3359 19.11V19.355L76.7209 17.5H81.7609L79.2409 29.4C79.1476 29.75 79.1009 30.1233 79.1009 30.52C79.1009 31.5233 79.5793 32.025 80.5359 32.025C81.1893 32.025 81.7493 31.7217 82.2159 31.115C82.7059 30.5083 83.0909 29.715 83.3709 28.735H84.8409C83.9776 31.255 82.9043 32.97 81.6209 33.88C80.3609 34.7667 79.0893 35.21 77.8059 35.21C76.8259 35.21 76.0326 34.9417 75.4259 34.405C74.8426 33.845 74.4926 33.04 74.3759 31.99C73.6993 32.9467 72.9409 33.7283 72.1009 34.335C71.2843 34.9183 70.3043 35.21 69.1609 35.21ZM71.4359 31.815C72.0193 31.815 72.5909 31.5467 73.1509 31.01C73.7343 30.45 74.1309 29.6917 74.3409 28.735L76.0209 20.825C76.0209 20.5217 75.9043 20.23 75.6709 19.95C75.4376 19.6467 75.0759 19.495 74.5859 19.495C73.6526 19.495 72.8126 20.0433 72.0659 21.14C71.3193 22.2133 70.7359 23.52 70.3159 25.06C69.8959 26.5767 69.6859 27.9183 69.6859 29.085C69.6859 30.2517 69.8493 30.9983 70.1759 31.325C70.5259 31.6517 70.9459 31.815 71.4359 31.815ZM80.2338 43.75C79.1371 43.75 78.1805 43.3883 77.3638 42.665C76.5238 41.965 76.1038 41.0667 76.1038 39.97C76.1038 38.9667 76.3605 38.1383 76.8738 37.485C77.3871 36.8317 78.0521 36.3067 78.8688 35.91C79.6855 35.5367 80.7705 35.14 82.1238 34.72L86.3588 14.735C86.8255 12.495 87.6421 10.9433 88.8088 10.08C89.9988 9.21667 91.3055 8.785 92.7288 8.785C93.8255 8.785 94.7821 9.14667 95.5988 9.87C96.4388 10.57 96.8588 11.4683 96.8588 12.565C96.8588 13.1017 96.8238 13.58 96.7538 14H95.1088C95.1555 13.4867 95.1788 13.1717 95.1788 13.055C95.1788 12.6817 95.0505 12.39 94.7938 12.18C94.5371 11.97 94.2221 11.865 93.8488 11.865C93.3588 11.865 92.8805 12.0867 92.4138 12.53C91.9471 12.95 91.6088 13.685 91.3988 14.735L90.8038 17.5H93.3588L93.1138 18.9H90.5238L86.4988 37.8C86.0321 40.0633 85.2271 41.615 84.0838 42.455C82.9405 43.3183 81.6571 43.75 80.2338 43.75ZM79.4288 40.635C80.3621 40.635 81.0271 39.725 81.4238 37.905L81.8788 35.875C80.6421 36.295 79.6971 36.7733 79.0438 37.31C78.3671 37.87 78.0288 38.5933 78.0288 39.48C78.0288 39.76 78.1688 40.0167 78.4488 40.25C78.7288 40.5067 79.0555 40.635 79.4288 40.635ZM97.7198 35.21C95.9932 35.21 94.6515 34.7667 93.6948 33.88C92.7382 32.97 92.2598 31.5583 92.2598 29.645C92.2598 28.035 92.5748 26.2617 93.2048 24.325C93.8348 22.3883 94.8615 20.72 96.2848 19.32C97.7082 17.8967 99.5165 17.185 101.71 17.185C104.277 17.185 105.56 18.305 105.56 20.545C105.56 21.8517 105.187 23.0533 104.44 24.15C103.693 25.2467 102.702 26.1333 101.465 26.81C100.228 27.4633 98.9098 27.8367 97.5098 27.93C97.4632 28.63 97.4398 29.0967 97.4398 29.33C97.4398 30.4733 97.6382 31.255 98.0348 31.675C98.4315 32.0717 99.0732 32.27 99.9598 32.27C101.22 32.27 102.293 31.9783 103.18 31.395C104.09 30.8117 105.082 29.925 106.155 28.735H107.345C104.755 33.0517 101.547 35.21 97.7198 35.21ZM97.7898 26.25C98.6532 26.2033 99.4698 25.9 100.24 25.34C101.033 24.78 101.663 24.0683 102.13 23.205C102.62 22.3417 102.865 21.4317 102.865 20.475C102.865 19.5183 102.573 19.04 101.99 19.04C101.15 19.04 100.322 19.775 99.5048 21.245C98.7115 22.715 98.1398 24.3833 97.7898 26.25ZM109.612 35.21C108.492 35.21 107.582 34.86 106.882 34.16C106.206 33.46 105.867 32.41 105.867 31.01C105.867 30.4267 105.961 29.6683 106.147 28.735L109.892 11.2L115.072 10.5L111.047 29.4C110.954 29.75 110.907 30.1233 110.907 30.52C110.907 30.9867 111.012 31.325 111.222 31.535C111.456 31.7217 111.829 31.815 112.342 31.815C113.019 31.815 113.649 31.535 114.232 30.975C114.816 30.3917 115.236 29.645 115.492 28.735H116.962C116.099 31.255 114.991 32.97 113.637 33.88C112.284 34.7667 110.942 35.21 109.612 35.21ZM120.939 43.75C119.842 43.75 118.874 43.3883 118.034 42.665C117.217 41.965 116.809 41.0667 116.809 39.97C116.809 38.9433 117.065 38.1033 117.579 37.45C118.092 36.7967 118.757 36.2833 119.574 35.91C120.39 35.5367 121.487 35.14 122.864 34.72L123.214 33.18C122.024 34.5333 120.6 35.21 118.944 35.21C117.824 35.21 116.914 34.86 116.214 34.16C115.537 33.46 115.199 32.41 115.199 31.01C115.199 30.4267 115.292 29.6683 115.479 28.735L117.859 17.5H122.899L120.379 29.4C120.309 29.68 120.274 29.9717 120.274 30.275C120.274 31.3017 120.624 31.815 121.324 31.815C121.977 31.815 122.537 31.5467 123.004 31.01C123.47 30.45 123.844 29.6917 124.124 28.735L126.504 17.5H131.579L127.309 37.8C126.842 40.04 126.014 41.5917 124.824 42.455C123.657 43.3183 122.362 43.75 120.939 43.75ZM120.134 40.635C120.554 40.635 120.95 40.4133 121.324 39.97C121.697 39.55 121.989 38.8617 122.199 37.905L122.619 35.84C121.382 36.26 120.425 36.75 119.749 37.31C119.072 37.87 118.734 38.5933 118.734 39.48C118.734 39.76 118.874 40.0167 119.154 40.25C119.434 40.5067 119.76 40.635 120.134 40.635Z" fill="#DE3B30"/>
</svg>
