<svg width="30" height="23" viewBox="0 0 30 23" fill="none" xmlns="http://www.w3.org/2000/svg">
<path d="M12.315 12.6457C12.9017 12.0608 12.9032 11.1111 12.3183 10.5244L2.78707 0.963761C2.20219 0.377072 1.25244 0.375608 0.665753 0.96049C0.079064 1.54537 0.0775991 2.49512 0.662481 3.08181L9.13466 11.5802L0.636305 20.0524C0.0496162 20.6372 0.0481513 21.587 0.633034 22.1737C1.21792 22.7604 2.16766 22.7618 2.75435 22.1769L12.315 12.6457ZM28.7518 12.6418C29.3376 12.056 29.3376 11.1062 28.7518 10.5204L19.206 0.974348C18.6202 0.388552 17.6705 0.388538 17.0847 0.974315C16.4989 1.56009 16.4989 2.50984 17.0847 3.09564L25.5698 11.581L17.0844 20.0662C16.4986 20.652 16.4986 21.6017 17.0843 22.1875C17.6701 22.7733 18.6199 22.7733 19.2057 22.1876L28.7518 12.6418ZM9.7129 13.0811L11.2537 13.0834L11.2583 10.0834L9.71752 10.0811L9.7129 13.0811ZM26.1504 13.0811L27.6911 13.0811L27.6911 10.0811L26.1504 10.0811L26.1504 13.0811Z" fill="black"/>
</svg>
