<svg width="68" height="75" viewBox="0 0 68 75" fill="none" xmlns="http://www.w3.org/2000/svg">
<path d="M52.9453 32.8193C51.4879 32.8193 50.3354 31.5068 50.3354 29.9316C50.3354 28.5441 49.0813 25.6566 46.9798 23.1441C44.9122 20.7065 42.6413 19.2815 40.7431 19.2815C39.2856 19.2815 38.1332 17.969 38.1332 16.394C38.1332 14.819 39.3195 13.5065 40.7431 13.5065C44.1326 13.5065 47.6916 15.5315 50.81 19.169C53.7249 22.5816 55.5892 26.8191 55.5892 29.8941C55.5892 31.5068 54.4028 32.8193 52.9453 32.8193Z" fill="#DC0028"/>
<path d="M65.1818 32.814C63.7242 32.814 62.5718 31.5014 62.5718 29.9263C62.5718 16.6132 52.7757 5.81276 40.7765 5.81276C39.3189 5.81276 38.1665 4.5002 38.1665 2.92513C38.1665 1.35006 39.3189 0 40.7426 0C55.6569 0 67.7918 13.4256 67.7918 29.9263C67.7918 31.5014 66.6054 32.814 65.1818 32.814Z" fill="#DC0028"/>
<path d="M30.6761 48.5647L24.4053 55.5025C23.0833 56.9651 20.9818 56.9651 19.6259 55.54C19.2531 55.1275 18.8802 54.7525 18.5073 54.3399C15.016 50.4398 11.8637 46.3521 9.05029 42.0769C6.2708 37.8017 4.03365 33.5265 2.40663 29.2888C0.813509 25.0136 0 20.9259 0 17.0258C0 14.4757 0.406754 12.038 1.22026 9.78794C2.03377 7.50034 3.32183 5.40024 5.11833 3.52516C7.28769 1.16255 9.66042 0 12.1687 0C13.1178 0 14.0669 0.22501 14.9143 0.675031C15.7956 1.12505 16.5753 1.80008 17.1854 2.77512L25.0493 15.0382C25.6594 15.9757 26.1001 16.8383 26.4052 17.6633C26.7102 18.4508 26.8797 19.2384 26.8797 19.9509C26.8797 20.8509 26.6424 21.751 26.1679 22.6135C25.7272 23.4761 25.0832 24.3761 24.2697 25.2761L21.6936 28.2388C21.3207 28.6513 21.1512 29.1388 21.1512 29.7388C21.1512 30.0389 21.1851 30.3014 21.2529 30.6014C21.3546 30.9014 21.4563 31.1264 21.5241 31.3514C22.1342 32.589 23.185 34.2015 24.6764 36.1516C26.2018 38.1017 27.8288 40.0893 29.5914 42.0769C29.9304 42.4519 30.3032 42.8269 30.6422 43.2019C31.998 44.6645 32.0319 47.0646 30.6761 48.5647Z" fill="#DC0028"/>
<path d="M67.6894 61.2368C67.6894 62.2868 67.5199 63.3744 67.181 64.4244C67.0793 64.7244 66.9776 65.0245 66.842 65.3245C66.2658 66.6745 65.5201 67.9496 64.5371 69.1496C62.8762 71.1747 61.0458 72.6373 58.9781 73.5748C58.9442 73.5748 58.9103 73.6123 58.8764 73.6123C56.8765 74.5124 54.7072 74.9999 52.3683 74.9999C48.9109 74.9999 45.2162 74.0999 41.3182 72.2623C37.4201 70.4247 33.522 67.9496 29.6579 64.8369C28.3359 63.7494 27.014 62.6618 25.7598 61.4993L36.8439 49.2362C37.793 50.0238 38.6404 50.6238 39.3522 51.0363C39.5217 51.1113 39.725 51.2238 39.9623 51.3363C40.2335 51.4488 40.5046 51.4863 40.8097 51.4863C41.386 51.4863 41.8266 51.2613 42.1995 50.8488L44.7756 48.0362C45.623 47.0986 46.4365 46.3861 47.2161 45.9361C47.9957 45.4111 48.7753 45.1486 49.6227 45.1486C50.2668 45.1486 50.9447 45.2986 51.6904 45.6361C52.4361 45.9736 53.2157 46.4611 54.0631 47.0986L65.2828 55.9115C66.1641 56.5866 66.7742 57.3741 67.1471 58.3117C67.486 59.2492 67.6894 60.1867 67.6894 61.2368Z" fill="#DC0028"/>
</svg>
