<svg width="75" height="75" viewBox="0 0 75 75" fill="none" xmlns="http://www.w3.org/2000/svg">
<path d="M62.788 51.4504C60.6809 38.2131 48.5735 27.4508 35.7875 27.4508C21.8943 27.4508 9.67983 39.2631 8.50123 53.8129C8.03694 59.4378 9.75126 64.7627 13.287 68.7752C16.7871 72.7876 21.7158 75.0001 27.073 75.0001H43.7877C49.8235 75.0001 55.1093 72.5251 58.7165 68.0627C62.3238 63.6002 63.7524 57.6753 62.788 51.4504Z" fill="#DC0028"/>
<path d="M31.3563 21.9747C37.1357 21.9747 41.8208 17.0555 41.8208 10.9873C41.8208 4.91921 37.1357 0 31.3563 0C25.5769 0 20.8919 4.91921 20.8919 10.9873C20.8919 17.0555 25.5769 21.9747 31.3563 21.9747Z" fill="#DC0028"/>
<path d="M55.1439 26.3561C59.9568 26.3561 63.8583 22.2596 63.8583 17.2063C63.8583 12.1529 59.9568 8.0564 55.1439 8.0564C50.3309 8.0564 46.4294 12.1529 46.4294 17.2063C46.4294 22.2596 50.3309 26.3561 55.1439 26.3561Z" fill="#DC0028"/>
<path d="M68.0356 40.9917C71.8821 40.9917 75 37.7176 75 33.6789C75 29.6406 71.8821 26.3667 68.0356 26.3667C64.1894 26.3667 61.0712 29.6406 61.0712 33.6789C61.0712 37.7176 64.1894 40.9917 68.0356 40.9917Z" fill="#DC0028"/>
<path d="M8.71445 33.6805C13.5273 33.6805 17.4289 29.5838 17.4289 24.5305C17.4289 19.4772 13.5273 15.3806 8.71445 15.3806C3.90161 15.3806 0 19.4772 0 24.5305C0 29.5838 3.90161 33.6805 8.71445 33.6805Z" fill="#DC0028"/>
</svg>
