<svg width="75" height="75" viewBox="0 0 75 75" fill="none" xmlns="http://www.w3.org/2000/svg">
<path d="M65.7994 7.88931L44.0408 0.872421C40.4216 -0.290807 34.4914 -0.290807 30.8722 0.872421L9.11335 7.88931C4.09883 9.50282 0 14.606 0 19.1839V47.0638C0 51.4915 3.40115 57.3077 7.54359 59.9719L26.2935 72.0169C32.442 75.9944 42.5582 75.9944 48.7065 72.0169L67.4564 59.9719C71.5988 57.3077 75 51.4915 75 47.0638V19.1839C74.9128 14.606 70.814 9.50282 65.7994 7.88931ZM37.1512 18.8462C42.2966 18.8462 46.4826 22.4484 46.4826 26.8762C46.4826 31.2289 42.5146 34.7186 37.5001 34.8686H37.4129H37.3257C37.2385 34.8686 37.1512 34.8686 37.064 34.8686C31.8315 34.7186 27.9069 31.2289 27.9069 26.8762C27.8633 22.4484 32.0495 18.8462 37.1512 18.8462ZM47.0059 53.8555C44.346 55.3565 40.9012 56.1445 37.4565 56.1445C34.0117 56.1445 30.5234 55.394 27.9069 53.8555C25.4214 52.4296 24.0697 50.4784 24.0261 48.3396C24.0261 46.2383 25.4214 44.212 27.9069 42.7861C33.1832 39.7842 41.7733 39.7842 47.0495 42.7861C49.5349 44.212 50.9303 46.1632 50.9303 48.3021C50.8867 50.4034 49.4913 52.4296 47.0059 53.8555Z" fill="#DC0028"/>
</svg>
